<svg width="108" height="95" viewBox="0 0 108 95" fill="none" xmlns="http://www.w3.org/2000/svg">
<path d="M40.8724 6.69425L16.1767 16.404C6.52052 20.2005 2.69153 29.5331 6.65605 39.6165L15.8058 62.8881C19.7591 72.943 28.9189 77.1689 38.5751 73.3723L63.2709 63.6626C72.927 59.8661 76.7275 50.5446 72.7742 40.4897L63.6244 17.2181C59.6599 7.13474 50.5286 2.89772 40.8724 6.69425" fill="url(#paint0_linear_2728_40605)"/>
<g opacity="0.5" filter="url(#filter0_f_2728_40605)">
<path d="M67.9722 40.0993L61.7751 24.321C59.5273 18.5979 54.3421 16.7881 47.7 19.3969L25.2039 28.2324C18.4528 30.884 15.9723 35.7045 18.2202 41.4277L24.4172 57.2059C26.7013 63.0214 31.7624 64.7712 38.5134 62.1197L61.0095 53.2841C67.6516 50.6753 70.2562 45.9147 67.9722 40.0993Z" fill="#4B68FF"/>
</g>
<g filter="url(#filter1_b_2728_40605)">
<path d="M88.354 33.4653L87.9457 32.568C86.8432 30.2431 85.5774 27.5511 84.8015 26.0011C82.9232 22.3302 79.6974 20.2908 75.7365 20.25H56.504C52.5432 20.2908 49.3582 22.3302 47.4799 26.0011C46.6632 27.6326 45.2749 30.5694 44.1315 32.9759L43.8865 33.4653C43.764 33.7916 43.4374 33.9548 43.1107 33.9548C33.2699 33.9548 25.3074 41.9492 25.3074 51.7383V75.9664C25.3074 85.7556 33.2699 93.75 43.1107 93.75H89.1707C98.9707 93.75 106.974 85.7556 106.974 75.9664V51.7383C106.974 41.9492 98.9707 33.9548 89.1707 33.9548C88.8032 33.9548 88.5174 33.7508 88.354 33.4653Z" fill="#879BFF" fill-opacity="0.4"/>
<path d="M88.4008 32.3609L88.4009 32.3609L88.3975 32.3537C88.2095 31.9572 88.0165 31.5497 87.8219 31.1386C86.8776 29.144 85.8945 27.0676 85.2487 25.7773L85.2467 25.7734C83.2875 21.9446 79.8968 19.7928 75.7417 19.75V19.75H75.7365L56.504 19.75L56.4989 19.75C52.3415 19.7928 48.9928 21.9467 47.0347 25.7733L47.0328 25.7773C46.3141 27.2131 45.1557 29.653 44.1117 31.8521C43.9658 32.1595 43.8221 32.4621 43.6821 32.7566L43.4394 33.2415C43.4316 33.2572 43.4246 33.2732 43.4184 33.2896C43.3884 33.3695 43.2898 33.4548 43.1107 33.4548C32.9935 33.4548 24.8074 41.6733 24.8074 51.7383V75.9664C24.8074 86.0315 32.9935 94.25 43.1107 94.25H89.1707C99.2463 94.25 107.474 86.0322 107.474 75.9664V51.7383C107.474 41.6726 99.2463 33.4548 89.1707 33.4548C89.0154 33.4548 88.8864 33.3777 88.7982 33.2341L88.4008 32.3609Z" stroke="url(#paint1_linear_2728_40605)" stroke-linecap="round" stroke-linejoin="round"/>
</g>
<g filter="url(#filter2_bd_2728_40605)">
<mask id="path-5-inside-1_2728_40605" fill="white">
<path fill-rule="evenodd" clip-rule="evenodd" d="M85.3731 49.1282C85.3731 51.1676 87.0065 52.7991 89.0481 52.7991C91.0898 52.7991 92.764 51.1676 92.764 49.1282C92.764 47.0888 91.0898 45.4164 89.0481 45.4164C87.0065 45.4164 85.3731 47.0888 85.3731 49.1282ZM77.4516 73.7642C74.5524 76.6601 70.5508 78.4548 66.1408 78.4548C61.8533 78.4548 57.8516 76.7825 54.7891 73.7642C51.7674 70.7051 50.0933 66.7078 50.0933 62.4251C50.0524 58.1831 51.7266 54.1859 54.7483 51.1268C57.8108 48.0677 61.8533 46.3954 66.1408 46.3954C70.4283 46.3954 74.4708 48.0677 77.4924 51.086C80.5141 54.1451 82.1883 58.1831 82.1883 62.4251C82.1474 66.871 80.3508 70.8682 77.4516 73.7642ZM66.1407 52.5135C63.4866 52.5135 60.9957 53.5332 59.0766 55.4502C57.1982 57.3264 56.1774 59.8145 56.2182 62.3841V62.4249C56.2182 65.0762 57.2391 67.5642 59.1174 69.4405C60.9957 71.3167 63.4866 72.3364 66.1407 72.3364C71.6124 72.3364 76.0224 67.8905 76.0632 62.4249C76.0632 59.7737 75.0424 57.2856 73.1641 55.4094C71.2857 53.5332 68.7949 52.5135 66.1407 52.5135Z"/>
</mask>
<path fill-rule="evenodd" clip-rule="evenodd" d="M85.3731 49.1282C85.3731 51.1676 87.0065 52.7991 89.0481 52.7991C91.0898 52.7991 92.764 51.1676 92.764 49.1282C92.764 47.0888 91.0898 45.4164 89.0481 45.4164C87.0065 45.4164 85.3731 47.0888 85.3731 49.1282ZM77.4516 73.7642C74.5524 76.6601 70.5508 78.4548 66.1408 78.4548C61.8533 78.4548 57.8516 76.7825 54.7891 73.7642C51.7674 70.7051 50.0933 66.7078 50.0933 62.4251C50.0524 58.1831 51.7266 54.1859 54.7483 51.1268C57.8108 48.0677 61.8533 46.3954 66.1408 46.3954C70.4283 46.3954 74.4708 48.0677 77.4924 51.086C80.5141 54.1451 82.1883 58.1831 82.1883 62.4251C82.1474 66.871 80.3508 70.8682 77.4516 73.7642ZM66.1407 52.5135C63.4866 52.5135 60.9957 53.5332 59.0766 55.4502C57.1982 57.3264 56.1774 59.8145 56.2182 62.3841V62.4249C56.2182 65.0762 57.2391 67.5642 59.1174 69.4405C60.9957 71.3167 63.4866 72.3364 66.1407 72.3364C71.6124 72.3364 76.0224 67.8905 76.0632 62.4249C76.0632 59.7737 75.0424 57.2856 73.1641 55.4094C71.2857 53.5332 68.7949 52.5135 66.1407 52.5135Z" fill="url(#paint2_linear_2728_40605)"/>
<path d="M77.4516 73.7642L77.5929 73.9057L77.4516 73.7642ZM54.7891 73.7642L54.6468 73.9047L54.6487 73.9066L54.7891 73.7642ZM50.0933 62.4251H50.2933L50.2932 62.4232L50.0933 62.4251ZM54.7483 51.1268L54.6069 50.9853L54.606 50.9863L54.7483 51.1268ZM77.4924 51.086L77.6347 50.9455L77.6338 50.9445L77.4924 51.086ZM82.1883 62.4251L82.3883 62.4269V62.4251H82.1883ZM59.0766 55.4502L59.2179 55.5917L59.0766 55.4502ZM56.2182 62.3841H56.4182L56.4182 62.381L56.2182 62.3841ZM59.1174 69.4405L59.2587 69.299L59.2587 69.299L59.1174 69.4405ZM76.0632 62.4249L76.2632 62.4264V62.4249H76.0632ZM73.1641 55.4094L73.0227 55.5509L73.0227 55.5509L73.1641 55.4094ZM89.0481 52.5991C87.1167 52.5991 85.5731 51.0569 85.5731 49.1282H85.1731C85.1731 51.2782 86.8962 52.9991 89.0481 52.9991V52.5991ZM92.564 49.1282C92.564 51.054 90.9824 52.5991 89.0481 52.5991V52.9991C91.1971 52.9991 92.964 51.2811 92.964 49.1282H92.564ZM89.0481 45.6164C90.9795 45.6164 92.564 47.1994 92.564 49.1282H92.964C92.964 46.9781 91.2 45.2164 89.0481 45.2164V45.6164ZM85.5731 49.1282C85.5731 47.1965 87.1196 45.6164 89.0481 45.6164V45.2164C86.8933 45.2164 85.1731 46.981 85.1731 49.1282H85.5731ZM66.1408 78.6548C70.6061 78.6548 74.658 76.8374 77.5929 73.9057L77.3102 73.6227C74.4469 76.4828 70.4954 78.2548 66.1408 78.2548V78.6548ZM54.6487 73.9066C57.7478 76.961 61.7996 78.6548 66.1408 78.6548V78.2548C61.9069 78.2548 57.9553 76.6039 54.9295 73.6217L54.6487 73.9066ZM49.8933 62.4251C49.8933 66.7616 51.589 70.809 54.6468 73.9047L54.9314 73.6236C51.9459 70.6011 50.2933 66.6541 50.2933 62.4251H49.8933ZM54.606 50.9863C51.5484 54.0817 49.8519 58.1296 49.8933 62.427L50.2932 62.4232C50.253 58.2367 51.9048 54.2901 54.8905 51.2674L54.606 50.9863ZM66.1408 46.1954C61.8 46.1954 57.7067 47.8889 54.6069 50.9853L54.8896 51.2683C57.9148 48.2465 61.9065 46.5954 66.1408 46.5954V46.1954ZM77.6338 50.9445C74.5745 47.8887 70.4811 46.1954 66.1408 46.1954V46.5954C70.3754 46.5954 74.367 48.2468 77.3511 51.2275L77.6338 50.9445ZM82.3883 62.4251C82.3883 58.1296 80.6927 54.0414 77.6347 50.9455L77.3501 51.2266C80.3355 54.2489 81.9883 58.2367 81.9883 62.4251H82.3883ZM77.5929 73.9057C80.5281 70.9737 82.3469 66.9267 82.3882 62.4269L81.9883 62.4233C81.9479 66.8152 80.1734 70.7627 77.3102 73.6227L77.5929 73.9057ZM59.2179 55.5917C61.0996 53.7121 63.5396 52.7135 66.1407 52.7135V52.3135C63.4335 52.3135 60.8918 53.3542 58.9352 55.3087L59.2179 55.5917ZM56.4182 62.381C56.3782 59.8671 57.3768 57.4308 59.2179 55.5917L58.9352 55.3087C57.0197 57.2221 55.9765 59.7619 56.0182 62.3873L56.4182 62.381ZM56.4182 62.4249V62.3841H56.0182V62.4249H56.4182ZM59.2587 69.299C57.4183 67.4606 56.4182 65.0236 56.4182 62.4249H56.0182C56.0182 65.1287 57.0598 67.6679 58.976 69.582L59.2587 69.299ZM66.1407 72.1364C63.539 72.1364 61.0992 71.1374 59.2587 69.299L58.976 69.582C60.8923 71.4961 63.4341 72.5364 66.1407 72.5364V72.1364ZM75.8632 62.4234C75.8232 67.7809 71.5008 72.1364 66.1407 72.1364V72.5364C71.724 72.5364 76.2216 68.0002 76.2632 62.4264L75.8632 62.4234ZM73.0227 55.5509C74.8631 57.3893 75.8632 59.8263 75.8632 62.4249H76.2632C76.2632 59.7211 75.2217 57.182 73.3054 55.2679L73.0227 55.5509ZM66.1407 52.7135C68.7425 52.7135 71.1823 53.7125 73.0227 55.5509L73.3054 55.2679C71.3892 53.3538 68.8473 52.3135 66.1407 52.3135V52.7135Z" fill="url(#paint3_linear_2728_40605)" fill-opacity="0.5" mask="url(#path-5-inside-1_2728_40605)"/>
</g>
<path d="M99.643 0.25H90.3785C90.1672 0.25 89.9787 0.382836 89.9076 0.581833L85.2648 13.5818C85.1485 13.9075 85.3899 14.25 85.7356 14.25H91.8123C92.1593 14.25 92.4007 14.5948 92.2822 14.9209L89.3644 22.9447C89.1783 23.4564 89.8283 23.8548 90.1998 23.4567L101.741 11.0912C102.039 10.7715 101.813 10.25 101.376 10.25H95.4092C95.0206 10.25 94.7805 9.82601 94.9805 9.49275L100.072 1.00725C100.272 0.673986 100.032 0.25 99.643 0.25Z" fill="url(#paint4_linear_2728_40605)"/>
<defs>
<filter id="filter0_f_2728_40605" x="0.412354" y="1.22833" width="85.3713" height="79.0987" filterUnits="userSpaceOnUse" color-interpolation-filters="sRGB">
<feFlood flood-opacity="0" result="BackgroundImageFix"/>
<feBlend mode="normal" in="SourceGraphic" in2="BackgroundImageFix" result="shape"/>
<feGaussianBlur stdDeviation="8.5" result="effect1_foregroundBlur_2728_40605"/>
</filter>
<filter id="filter1_b_2728_40605" x="9.30737" y="4.24994" width="113.667" height="105.5" filterUnits="userSpaceOnUse" color-interpolation-filters="sRGB">
<feFlood flood-opacity="0" result="BackgroundImageFix"/>
<feGaussianBlur in="BackgroundImageFix" stdDeviation="7.5"/>
<feComposite in2="SourceAlpha" operator="in" result="effect1_backgroundBlur_2728_40605"/>
<feBlend mode="normal" in="SourceGraphic" in2="effect1_backgroundBlur_2728_40605" result="shape"/>
</filter>
<filter id="filter2_bd_2728_40605" x="35.0925" y="30.4164" width="72.6714" height="63.0383" filterUnits="userSpaceOnUse" color-interpolation-filters="sRGB">
<feFlood flood-opacity="0" result="BackgroundImageFix"/>
<feGaussianBlur in="BackgroundImageFix" stdDeviation="7.5"/>
<feComposite in2="SourceAlpha" operator="in" result="effect1_backgroundBlur_2728_40605"/>
<feColorMatrix in="SourceAlpha" type="matrix" values="0 0 0 0 0 0 0 0 0 0 0 0 0 0 0 0 0 0 127 0" result="hardAlpha"/>
<feOffset dx="5" dy="5"/>
<feGaussianBlur stdDeviation="5"/>
<feColorMatrix type="matrix" values="0 0 0 0 0.327962 0 0 0 0 0.436235 0 0 0 0 1 0 0 0 0.5 0"/>
<feBlend mode="normal" in2="effect1_backgroundBlur_2728_40605" result="effect2_dropShadow_2728_40605"/>
<feBlend mode="normal" in="SourceGraphic" in2="effect2_dropShadow_2728_40605" result="shape"/>
</filter>
<linearGradient id="paint0_linear_2728_40605" x1="45.4034" y1="42.2048" x2="4.91534" y2="86.2251" gradientUnits="userSpaceOnUse">
<stop stop-color="#8296FF"/>
<stop offset="1" stop-color="#4B68FF"/>
</linearGradient>
<linearGradient id="paint1_linear_2728_40605" x1="38.3074" y1="28.8128" x2="103.337" y2="97.3621" gradientUnits="userSpaceOnUse">
<stop stop-color="white" stop-opacity="0.25"/>
<stop offset="1" stop-color="white" stop-opacity="0.15"/>
</linearGradient>
<linearGradient id="paint2_linear_2728_40605" x1="89.7386" y1="51.3825" x2="42.2404" y2="53.3827" gradientUnits="userSpaceOnUse">
<stop stop-color="white"/>
<stop offset="1" stop-color="white" stop-opacity="0.2"/>
</linearGradient>
<linearGradient id="paint3_linear_2728_40605" x1="90.9356" y1="62.6344" x2="49.4975" y2="64.8641" gradientUnits="userSpaceOnUse">
<stop stop-color="white"/>
<stop offset="1" stop-color="white" stop-opacity="0"/>
</linearGradient>
<linearGradient id="paint4_linear_2728_40605" x1="95.0645" y1="14.4241" x2="78.0259" y2="20.2233" gradientUnits="userSpaceOnUse">
<stop stop-color="#8FA1FF"/>
<stop offset="1" stop-color="#4B68FF"/>
</linearGradient>
</defs>
</svg>
